<?xml version="1.0" encoding="UTF-8" standalone="no"?><!DOCTYPE svg PUBLIC "-//W3C//DTD SVG 1.1//EN" "http://www.w3.org/Graphics/SVG/1.1/DTD/svg11.dtd"><!-- Generated by graphviz version 2.40.1 (20161225.0304)
 --><!-- Title: p_Shuttle Pages: 1 --><svg xmlns="http://www.w3.org/2000/svg" xmlns:xlink="http://www.w3.org/1999/xlink" width="576pt" height="311pt" viewBox="0.00 0.00 576.00 310.68">
<g id="graph0" class="graph" transform="scale(.2144 .2144) rotate(0) translate(4 1445)">
<title>p_Shuttle</title>
<polygon fill="#ffffff" stroke="transparent" points="-4,4 -4,-1445 2682.4388,-1445 2682.4388,4 -4,4"/>
<!-- GT -->
<g id="node1" class="node">
<title>GT</title>
<polygon fill="none" stroke="#000000" stroke-dasharray="1,5" points="1645.67,-1441 1590.33,-1441 1590.33,-1405 1645.67,-1405 1645.67,-1441"/>
<text text-anchor="middle" x="1618" y="-1418.8" font-family="Times,serif" font-size="14.00" fill="#000000">Shuttle</text>
</g>
<!-- S1 -->
<g id="node2" class="node">
<title>S1</title>
<ellipse fill="none" stroke="#000000" cx="1618" cy="-1350" rx="27" ry="18"/>
<text text-anchor="middle" x="1618" y="-1345.8" font-family="Times,serif" font-size="14.00" fill="#000000">S1</text>
</g>
<!-- GT&#45;&gt;S1 -->
<g id="edge1" class="edge">
<title>GT-&gt;S1</title>
<path fill="none" stroke="#000000" d="M1618,-1404.9551C1618,-1396.8828 1618,-1387.1764 1618,-1378.1817"/>
<polygon fill="#000000" stroke="#000000" points="1621.5001,-1378.0903 1618,-1368.0904 1614.5001,-1378.0904 1621.5001,-1378.0903"/>
</g>
<!-- S2 -->
<g id="node3" class="node">
<title>S2</title>
<ellipse fill="none" stroke="#000000" cx="1618" cy="-1261.2" rx="27" ry="18"/>
<text text-anchor="middle" x="1618" y="-1257" font-family="Times,serif" font-size="14.00" fill="#000000">S2</text>
</g>
<!-- S1&#45;&gt;S2 -->
<g id="edge2" class="edge">
<title>S1-&gt;S2</title>
<path fill="none" stroke="#000000" stroke-width="2" d="M1618,-1331.6006C1618,-1319.4949 1618,-1303.4076 1618,-1289.6674"/>
<polygon fill="#000000" stroke="#000000" stroke-width="2" points="1621.5001,-1289.272 1618,-1279.272 1614.5001,-1289.2721 1621.5001,-1289.272"/>
<text text-anchor="middle" x="1721.6707" y="-1301.4" font-family="Times,serif" font-size="14.00" fill="#000000">shuttle_travel[id].start = start_station</text>
</g>
<!-- S130 -->
<g id="node4" class="node">
<title>S130</title>
<ellipse fill="none" stroke="#000000" cx="1618" cy="-1172.4" rx="30.7808" ry="18"/>
<text text-anchor="middle" x="1618" y="-1168.2" font-family="Times,serif" font-size="14.00" fill="#000000">S130</text>
</g>
<!-- S2&#45;&gt;S130 -->
<g id="edge3" class="edge">
<title>S2-&gt;S130</title>
<path fill="none" stroke="#000000" stroke-width="2" d="M1618,-1242.8006C1618,-1230.6949 1618,-1214.6076 1618,-1200.8674"/>
<polygon fill="#000000" stroke="#000000" stroke-width="2" points="1621.5001,-1200.472 1618,-1190.472 1614.5001,-1200.4721 1621.5001,-1200.472"/>
<text text-anchor="middle" x="1686.6798" y="-1212.6" font-family="Times,serif" font-size="14.00" fill="#000000">shuttle_travel[id].dir = 0</text>
</g>
<!-- S38 -->
<g id="node5" class="node">
<title>S38</title>
<ellipse fill="none" stroke="#000000" cx="304" cy="-1083.6" rx="27" ry="18"/>
<text text-anchor="middle" x="304" y="-1079.4" font-family="Times,serif" font-size="14.00" fill="#000000">S38</text>
</g>
<!-- S130&#45;&gt;S38 -->
<g id="edge4" class="edge">
<title>S130-&gt;S38</title>
<path fill="none" stroke="#000000" stroke-width="2" d="M1586.8023,-1172.0619C1391.2133,-1169.8786 341.4278,-1157.2032 316.063,-1136.4 308.7733,-1130.4213 305.3434,-1121.0264 303.868,-1111.8083"/>
<polygon fill="#000000" stroke="#000000" stroke-width="2" points="307.3363,-1111.3032 302.9311,-1101.6676 300.366,-1111.9472 307.3363,-1111.3032"/>
<text text-anchor="middle" x="432.4685" y="-1123.8" font-family="Times,serif" font-size="14.00" fill="#000000">shuttle_chan[id]?msg,o.start,o.dest,o.size</text>
</g>
<!-- S128 -->
<g id="node6" class="node">
<title>S128</title>
<ellipse fill="none" stroke="#000000" cx="949" cy="-1083.6" rx="30.7808" ry="18"/>
<text text-anchor="middle" x="949" y="-1079.4" font-family="Times,serif" font-size="14.00" fill="#000000">S128</text>
</g>
<!-- S130&#45;&gt;S128 -->
<g id="edge5" class="edge">
<title>S130-&gt;S128</title>
<path fill="none" stroke="#000000" stroke-width="2" d="M1587.5161,-1168.3537C1479.0991,-1153.9629 1112.1322,-1105.2534 989.3781,-1088.9596"/>
<polygon fill="#000000" stroke="#000000" stroke-width="2" points="989.6533,-1085.4655 979.2796,-1087.6192 988.7321,-1092.4046 989.6533,-1085.4655"/>
<text text-anchor="middle" x="1421.5701" y="-1123.8" font-family="Times,serif" font-size="14.00" fill="#000000">((curr_order!=num_orders))</text>
</g>
<!-- S38&#45;&gt;S130 -->
<g id="edge7" class="edge">
<title>S38-&gt;S130</title>
<path fill="none" stroke="#000000" d="M276.9305,-1085.5035C234.7074,-1089.0986 156.2317,-1098.5051 139.2486,-1119.6 134.5662,-1125.416 134.0335,-1131.0564 139.2486,-1136.4 165.056,-1162.8433 1340.2806,-1170.8399 1576.7916,-1172.1827"/>
<polygon fill="#000000" stroke="#000000" points="1577.0044,-1175.6838 1587.0239,-1172.2399 1577.0437,-1168.6839 1577.0044,-1175.6838"/>
<text text-anchor="middle" x="221.3757" y="-1123.8" font-family="Times,serif" font-size="14.00" fill="#000000">((msg==ASSIGN_ORDER))</text>
</g>
<!-- S25 -->
<g id="node7" class="node">
<title>S25</title>
<ellipse fill="none" stroke="#000000" cx="304" cy="-994.8" rx="27" ry="18"/>
<text text-anchor="middle" x="304" y="-990.6" font-family="Times,serif" font-size="14.00" fill="#000000">S25</text>
</g>
<!-- S38&#45;&gt;S25 -->
<g id="edge6" class="edge">
<title>S38-&gt;S25</title>
<path fill="none" stroke="#000000" d="M304,-1065.2006C304,-1053.0949 304,-1037.0076 304,-1023.2674"/>
<polygon fill="#000000" stroke="#000000" points="307.5001,-1022.872 304,-1012.872 300.5001,-1022.8721 307.5001,-1022.872"/>
<text text-anchor="middle" x="376.0398" y="-1035" font-family="Times,serif" font-size="14.00" fill="#000000">((msg==NEW_ORDER))</text>
</g>
<!-- S42 -->
<g id="node16" class="node">
<title>S42</title>
<ellipse fill="none" stroke="#000000" cx="1238" cy="-994.8" rx="27" ry="18"/>
<text text-anchor="middle" x="1238" y="-990.6" font-family="Times,serif" font-size="14.00" fill="#000000">S42</text>
</g>
<!-- S128&#45;&gt;S42 -->
<g id="edge21" class="edge">
<title>S128-&gt;S42</title>
<path fill="none" stroke="#000000" d="M979.8933,-1080.7357C1033.3684,-1075.4392 1140.7469,-1063.2162 1175,-1047.6 1179.5336,-1045.5331 1197.8699,-1030.0078 1213.6,-1016.3231"/>
<polygon fill="#000000" stroke="#000000" points="1216.2762,-1018.6325 1221.5014,-1009.4158 1211.669,-1013.3623 1216.2762,-1018.6325"/>
<text text-anchor="middle" x="1398.2023" y="-1035" font-family="Times,serif" font-size="14.00" fill="#000000">(((curr_station==orders[curr_order].start)&amp;&amp;!(are_passengers_loaded)))</text>
</g>
<!-- S70 -->
<g id="node17" class="node">
<title>S70</title>
<ellipse fill="none" stroke="#000000" cx="983" cy="-994.8" rx="27" ry="18"/>
<text text-anchor="middle" x="983" y="-990.6" font-family="Times,serif" font-size="14.00" fill="#000000">S70</text>
</g>
<!-- S128&#45;&gt;S70 -->
<g id="edge22" class="edge">
<title>S128-&gt;S70</title>
<path fill="none" stroke="#000000" d="M918.0488,-1081.3638C875.0423,-1077.5395 800.6197,-1068.0807 784.1284,-1047.6 779.4456,-1041.7843 779.3419,-1036.5307 784.1284,-1030.8 784.7818,-1030.0177 889.3875,-1011.3823 946.6038,-1001.2392"/>
<polygon fill="#000000" stroke="#000000" points="947.4641,-1004.6414 956.7001,-999.4503 946.2428,-997.7487 947.4641,-1004.6414"/>
<text text-anchor="middle" x="980.4358" y="-1035" font-family="Times,serif" font-size="14.00" fill="#000000">(((curr_station==orders[curr_order].dest)&amp;&amp;are_passengers_loaded))</text>
</g>
<!-- S98 -->
<g id="node18" class="node">
<title>S98</title>
<ellipse fill="none" stroke="#000000" cx="845" cy="-994.8" rx="27" ry="18"/>
<text text-anchor="middle" x="845" y="-990.6" font-family="Times,serif" font-size="14.00" fill="#000000">S98</text>
</g>
<!-- S128&#45;&gt;S98 -->
<g id="edge23" class="edge">
<title>S128-&gt;S98</title>
<path fill="none" stroke="#000000" d="M918.0234,-1082.4856C868.6469,-1079.9857 775.5773,-1072.0692 755.2356,-1047.6 736.6957,-1025.2982 776.632,-1010.2146 809.0427,-1002.0594"/>
<polygon fill="#000000" stroke="#000000" points="809.8629,-1005.4621 818.7865,-999.7506 808.2489,-998.6507 809.8629,-1005.4621"/>
<text text-anchor="middle" x="766.8822" y="-1035" font-family="Times,serif" font-size="14.00" fill="#000000">else</text>
</g>
<!-- S18 -->
<g id="node8" class="node">
<title>S18</title>
<ellipse fill="none" stroke="#000000" cx="323" cy="-817.2" rx="27" ry="18"/>
<text text-anchor="middle" x="323" y="-813" font-family="Times,serif" font-size="14.00" fill="#000000">S18</text>
</g>
<!-- S25&#45;&gt;S18 -->
<g id="edge8" class="edge">
<title>S25-&gt;S18</title>
<path fill="none" stroke="#000000" d="M310.5041,-977.0556C319.5442,-950.3704 334.3374,-898.2313 330,-853.2 329.74,-850.5005 329.3727,-847.7028 328.9411,-844.9141"/>
<polygon fill="#000000" stroke="#000000" points="332.3818,-844.2718 327.1724,-835.0462 325.4916,-845.5068 332.3818,-844.2718"/>
<text text-anchor="middle" x="404.4933" y="-901.8" font-family="Times,serif" font-size="14.00" fill="#000000">(((o.start-curr_station)&lt;0))</text>
</g>
<!-- S8 -->
<g id="node9" class="node">
<title>S8</title>
<ellipse fill="none" stroke="#000000" cx="224" cy="-906" rx="27" ry="18"/>
<text text-anchor="middle" x="224" y="-901.8" font-family="Times,serif" font-size="14.00" fill="#000000">S8</text>
</g>
<!-- S25&#45;&gt;S8 -->
<g id="edge9" class="edge">
<title>S25-&gt;S8</title>
<path fill="none" stroke="#000000" d="M290.0651,-979.3322C277.6374,-965.5375 259.2642,-945.1432 245.0464,-929.3615"/>
<polygon fill="#000000" stroke="#000000" points="247.3374,-926.6754 238.0437,-921.5885 242.1367,-931.3608 247.3374,-926.6754"/>
<text text-anchor="middle" x="282.8822" y="-946.2" font-family="Times,serif" font-size="14.00" fill="#000000">else</text>
</g>
<!-- S23 -->
<g id="node10" class="node">
<title>S23</title>
<ellipse fill="none" stroke="#000000" cx="339" cy="-639.6" rx="27" ry="18"/>
<text text-anchor="middle" x="339" y="-635.4" font-family="Times,serif" font-size="14.00" fill="#000000">S23</text>
</g>
<!-- S18&#45;&gt;S23 -->
<g id="edge10" class="edge">
<title>S18-&gt;S23</title>
<path fill="none" stroke="#000000" d="M321.0869,-798.9754C319.2114,-777.6487 317.1479,-741.3147 321.0134,-710.4 322.8261,-695.9027 326.6498,-680.1155 330.3075,-667.1353"/>
<polygon fill="#000000" stroke="#000000" points="333.7053,-667.9864 333.1637,-657.4054 326.9887,-666.0147 333.7053,-667.9864"/>
<text text-anchor="middle" x="396.4933" y="-724.2" font-family="Times,serif" font-size="14.00" fill="#000000">(((curr_station-o.start)&lt;0))</text>
</g>
<!-- S15 -->
<g id="node11" class="node">
<title>S15</title>
<ellipse fill="none" stroke="#000000" cx="506" cy="-728.4" rx="27" ry="18"/>
<text text-anchor="middle" x="506" y="-724.2" font-family="Times,serif" font-size="14.00" fill="#000000">S15</text>
</g>
<!-- S18&#45;&gt;S15 -->
<g id="edge11" class="edge">
<title>S18-&gt;S15</title>
<path fill="none" stroke="#000000" d="M345.0741,-806.4886C377.4494,-790.7786 437.9562,-761.418 474.8457,-743.5175"/>
<polygon fill="#000000" stroke="#000000" points="476.6637,-746.5257 484.1325,-739.0111 473.6078,-740.2279 476.6637,-746.5257"/>
<text text-anchor="middle" x="441.8822" y="-768.6" font-family="Times,serif" font-size="14.00" fill="#000000">else</text>
</g>
<!-- S8&#45;&gt;S18 -->
<g id="edge20" class="edge">
<title>S8-&gt;S18</title>
<path fill="none" stroke="#000000" d="M200.9803,-896.5559C180.0647,-886.61 154.3722,-870.0777 167.7834,-853.2 182.2998,-834.9314 245.0906,-825.1067 286.2264,-820.5306"/>
<polygon fill="#000000" stroke="#000000" points="286.5991,-824.0108 296.1755,-819.4783 285.8628,-817.0496 286.5991,-824.0108"/>
<text text-anchor="middle" x="249.1083" y="-857.4" font-family="Times,serif" font-size="14.00" fill="#000000">i = (o.start-(curr_station%6))</text>
</g>
<!-- S31 -->
<g id="node12" class="node">
<title>S31</title>
<ellipse fill="none" stroke="#000000" cx="320" cy="-462" rx="27" ry="18"/>
<text text-anchor="middle" x="320" y="-457.8" font-family="Times,serif" font-size="14.00" fill="#000000">S31</text>
</g>
<!-- S23&#45;&gt;S31 -->
<g id="edge12" class="edge">
<title>S23-&gt;S31</title>
<path fill="none" stroke="#000000" d="M329.3393,-622.4963C322.0416,-608.5414 312.6311,-588.0549 308.6818,-568.8 303.2409,-542.2726 307.6163,-511.4703 312.4212,-489.7816"/>
<polygon fill="#000000" stroke="#000000" points="315.8564,-490.4645 314.7733,-479.9252 309.0476,-488.8396 315.8564,-490.4645"/>
<text text-anchor="middle" x="326.1591" y="-546.6" font-family="Times,serif" font-size="14.00" fill="#000000">((i&lt;j))</text>
</g>
<!-- S22 -->
<g id="node13" class="node">
<title>S22</title>
<ellipse fill="none" stroke="#000000" cx="379" cy="-550.8" rx="27" ry="18"/>
<text text-anchor="middle" x="379" y="-546.6" font-family="Times,serif" font-size="14.00" fill="#000000">S22</text>
</g>
<!-- S23&#45;&gt;S22 -->
<g id="edge13" class="edge">
<title>S23-&gt;S22</title>
<path fill="none" stroke="#000000" d="M346.9027,-622.056C352.6004,-609.4071 360.3963,-592.1002 366.8781,-577.7105"/>
<polygon fill="#000000" stroke="#000000" points="370.1978,-578.8628 371.1137,-568.3076 363.8154,-575.9878 370.1978,-578.8628"/>
<text text-anchor="middle" x="373.8822" y="-591" font-family="Times,serif" font-size="14.00" fill="#000000">else</text>
</g>
<!-- S15&#45;&gt;S23 -->
<g id="edge19" class="edge">
<title>S15-&gt;S23</title>
<path fill="none" stroke="#000000" d="M483.7481,-717.7005C477.7512,-715.075 471.2042,-712.4368 465,-710.4 430.2846,-699.003 416.1491,-711.1416 384.7834,-692.4 373.229,-685.496 363.091,-674.6603 355.3117,-664.597"/>
<polygon fill="#000000" stroke="#000000" points="358.0738,-662.4445 349.3525,-656.4287 352.4188,-666.5702 358.0738,-662.4445"/>
<text text-anchor="middle" x="466.1083" y="-679.8" font-family="Times,serif" font-size="14.00" fill="#000000">j = (curr_station-(o.start%6))</text>
</g>
<!-- S28 -->
<g id="node14" class="node">
<title>S28</title>
<ellipse fill="none" stroke="#000000" cx="30" cy="-373.2" rx="27" ry="18"/>
<text text-anchor="middle" x="30" y="-369" font-family="Times,serif" font-size="14.00" fill="#000000">S28</text>
</g>
<!-- S31&#45;&gt;S28 -->
<g id="edge14" class="edge">
<title>S31-&gt;S28</title>
<path fill="none" stroke="#000000" d="M293.3587,-458.2229C259.2018,-452.9721 198.3984,-442.2414 148.261,-426 117.4286,-416.0122 83.8249,-400.5328 60.3453,-388.9122"/>
<polygon fill="#000000" stroke="#000000" points="61.7588,-385.7057 51.2506,-384.3532 58.6219,-391.9634 61.7588,-385.7057"/>
<text text-anchor="middle" x="280.8695" y="-413.4" font-family="Times,serif" font-size="14.00" fill="#000000">((((load+o.size)&lt;=capacity)&amp;&amp;(distance&lt;=2)))</text>
</g>
<!-- S30 -->
<g id="node15" class="node">
<title>S30</title>
<ellipse fill="none" stroke="#000000" cx="528" cy="-373.2" rx="27" ry="18"/>
<text text-anchor="middle" x="528" y="-369" font-family="Times,serif" font-size="14.00" fill="#000000">S30</text>
</g>
<!-- S31&#45;&gt;S30 -->
<g id="edge15" class="edge">
<title>S31-&gt;S30</title>
<path fill="none" stroke="#000000" d="M344.2815,-453.5156C363.8201,-446.54 391.8959,-436.1811 416,-426 443.8972,-414.2167 475.0073,-399.4129 497.3462,-388.4812"/>
<polygon fill="#000000" stroke="#000000" points="498.9197,-391.6078 506.3481,-384.0533 495.8301,-385.3265 498.9197,-391.6078"/>
<text text-anchor="middle" x="464.8822" y="-413.4" font-family="Times,serif" font-size="14.00" fill="#000000">else</text>
</g>
<!-- S22&#45;&gt;S31 -->
<g id="edge18" class="edge">
<title>S22-&gt;S31</title>
<path fill="none" stroke="#000000" d="M367.9026,-534.0974C359.0849,-520.826 346.6149,-502.0577 336.6084,-486.9971"/>
<polygon fill="#000000" stroke="#000000" points="339.4969,-485.02 331.0477,-478.6277 333.6665,-488.8938 339.4969,-485.02"/>
<text text-anchor="middle" x="387.3274" y="-502.2" font-family="Times,serif" font-size="14.00" fill="#000000">distance = j</text>
</g>
<!-- S28&#45;&gt;S130 -->
<g id="edge16" class="edge">
<title>S28-&gt;S130</title>
<path fill="none" stroke="#000000" stroke-width="2" d="M20.5078,-390.3128C11.7188,-407.7853 0,-435.9637 0,-462 0,-1083.6 0,-1083.6 0,-1083.6 0,-1146.7859 70.1034,-1123.7005 132,-1136.4 276.7972,-1166.1084 1352.6684,-1171.4755 1577.0606,-1172.2752"/>
<polygon fill="#000000" stroke="#000000" stroke-width="2" points="1577.0831,-1175.7752 1587.0952,-1172.3099 1577.1074,-1168.7753 1577.0831,-1175.7752"/>
<text text-anchor="middle" x="148.526" y="-768.6" font-family="Times,serif" font-size="14.00" fill="#000000">system_chan!OFFER,id,o.start,o.dest,o.size,payment</text>
</g>
<!-- S30&#45;&gt;S130 -->
<g id="edge17" class="edge">
<title>S30-&gt;S130</title>
<path fill="none" stroke="#000000" stroke-width="2" d="M538.2605,-389.8707C547.9477,-407.2249 561,-435.5207 561,-462 561,-1083.6 561,-1083.6 561,-1083.6 561,-1135.5311 1381.8623,-1164.8957 1576.822,-1171.1376"/>
<polygon fill="#000000" stroke="#000000" stroke-width="2" points="1576.8324,-1174.6396 1586.9384,-1171.4587 1577.0545,-1167.6431 1576.8324,-1174.6396"/>
<text text-anchor="middle" x="693.1971" y="-768.6" font-family="Times,serif" font-size="14.00" fill="#000000">system_chan!REFUSE,id,o.start,o.dest,o.size,0</text>
</g>
<!-- S66 -->
<g id="node19" class="node">
<title>S66</title>
<ellipse fill="none" stroke="#000000" cx="1279" cy="-906" rx="27" ry="18"/>
<text text-anchor="middle" x="1279" y="-901.8" font-family="Times,serif" font-size="14.00" fill="#000000">S66</text>
</g>
<!-- S42&#45;&gt;S66 -->
<g id="edge24" class="edge">
<title>S42-&gt;S66</title>
<path fill="none" stroke="#000000" d="M1247.4061,-977.7477C1250.5727,-971.8095 1254.0488,-965.0654 1257,-958.8 1260.8931,-950.5349 1264.8294,-941.3912 1268.275,-933.0678"/>
<polygon fill="#000000" stroke="#000000" points="1271.5291,-934.3569 1272.0624,-923.7755 1265.0468,-931.7148 1271.5291,-934.3569"/>
<text text-anchor="middle" x="1389.5149" y="-946.2" font-family="Times,serif" font-size="14.00" fill="#000000">(((load+orders[curr_order].size)&lt;=capacity))</text>
</g>
<!-- S71 -->
<g id="node27" class="node">
<title>S71</title>
<ellipse fill="none" stroke="#000000" cx="1090" cy="-906" rx="27" ry="18"/>
<text text-anchor="middle" x="1090" y="-901.8" font-family="Times,serif" font-size="14.00" fill="#000000">S71</text>
</g>
<!-- S70&#45;&gt;S71 -->
<g id="edge36" class="edge">
<title>S70-&gt;S71</title>
<path fill="none" stroke="#000000" stroke-width="2" d="M1000.6671,-980.9562C1009.0231,-974.3349 1019.0972,-966.2453 1028,-958.8 1036.7042,-951.5208 1038.6107,-949.3868 1047.2238,-942 1052.9984,-937.0476 1059.2466,-931.7533 1065.1371,-926.7907"/>
<polygon fill="#000000" stroke="#000000" stroke-width="2" points="1067.4659,-929.4053 1072.8698,-920.2922 1062.9624,-924.0464 1067.4659,-929.4053"/>
<text text-anchor="middle" x="1149.8881" y="-946.2" font-family="Times,serif" font-size="14.00" fill="#000000">shuttle_travel[id].start = curr_station</text>
</g>
<!-- S96 -->
<g id="node29" class="node">
<title>S96</title>
<ellipse fill="none" stroke="#000000" cx="848" cy="-906" rx="27" ry="18"/>
<text text-anchor="middle" x="848" y="-901.8" font-family="Times,serif" font-size="14.00" fill="#000000">S96</text>
</g>
<!-- S98&#45;&gt;S96 -->
<g id="edge39" class="edge">
<title>S98-&gt;S96</title>
<path fill="none" stroke="#000000" stroke-width="2" d="M845.2361,-976.7125C845.4048,-966.5158 845.6788,-953.5447 846.1034,-942 846.1927,-939.5725 846.2985,-937.0536 846.4138,-934.5267"/>
<polygon fill="#000000" stroke="#000000" stroke-width="2" points="849.9208,-934.4709 846.9228,-924.3091 842.9295,-934.1225 849.9208,-934.4709"/>
<text text-anchor="middle" x="925.4483" y="-946.2" font-family="Times,serif" font-size="14.00" fill="#000000">((shuttle_travel[id].dir==0))</text>
</g>
<!-- S127 -->
<g id="node30" class="node">
<title>S127</title>
<ellipse fill="none" stroke="#000000" cx="1040" cy="-373.2" rx="30.7808" ry="18"/>
<text text-anchor="middle" x="1040" y="-369" font-family="Times,serif" font-size="14.00" fill="#000000">S127</text>
</g>
<!-- S98&#45;&gt;S127 -->
<g id="edge40" class="edge">
<title>S98-&gt;S127</title>
<path fill="none" stroke="#000000" stroke-width="2" d="M871.195,-989.883C913.2071,-981.8411 992.066,-966.0465 1003,-958.8 1035.3256,-937.3761 1025.4531,-914.2489 1054,-888 1076.1289,-867.6525 1084.3974,-865.1082 1112,-853.2 1139.1309,-841.4953 1155.6723,-856.6446 1176,-835.2 1195.5536,-814.5721 1190,-801.2228 1190,-772.8 1190,-772.8 1190,-772.8 1190,-462 1190,-437.7224 1193.1704,-426.3633 1176,-409.2 1162.5575,-395.7631 1115.1929,-385.3583 1080.1209,-379.2653"/>
<polygon fill="#000000" stroke="#000000" stroke-width="2" points="1080.5803,-375.7935 1070.1386,-377.5882 1079.4205,-382.6967 1080.5803,-375.7935"/>
<text text-anchor="middle" x="1200.8822" y="-679.8" font-family="Times,serif" font-size="14.00" fill="#000000">else</text>
</g>
<!-- S65 -->
<g id="node20" class="node">
<title>S65</title>
<ellipse fill="none" stroke="#000000" cx="1279" cy="-817.2" rx="27" ry="18"/>
<text text-anchor="middle" x="1279" y="-813" font-family="Times,serif" font-size="14.00" fill="#000000">S65</text>
</g>
<!-- S66&#45;&gt;S65 -->
<g id="edge25" class="edge">
<title>S66-&gt;S65</title>
<path fill="none" stroke="#000000" d="M1279,-887.6006C1279,-875.4949 1279,-859.4076 1279,-845.6674"/>
<polygon fill="#000000" stroke="#000000" points="1282.5001,-845.272 1279,-835.272 1275.5001,-845.2721 1282.5001,-845.272"/>
<text text-anchor="middle" x="1383.4792" y="-857.4" font-family="Times,serif" font-size="14.00" fill="#000000">load = (load+orders[curr_order].size)</text>
</g>
<!-- S58 -->
<g id="node21" class="node">
<title>S58</title>
<ellipse fill="none" stroke="#000000" cx="1274" cy="-639.6" rx="27" ry="18"/>
<text text-anchor="middle" x="1274" y="-635.4" font-family="Times,serif" font-size="14.00" fill="#000000">S58</text>
</g>
<!-- S65&#45;&gt;S58 -->
<g id="edge26" class="edge">
<title>S65-&gt;S58</title>
<path fill="none" stroke="#000000" d="M1269.1843,-800.1164C1261.7693,-786.1729 1252.207,-765.6919 1248.1914,-746.4 1242.4608,-718.8688 1251.8891,-687.6289 1260.9176,-666.0817"/>
<polygon fill="#000000" stroke="#000000" points="1264.1295,-667.4724 1264.9818,-656.9119 1257.7299,-664.636 1264.1295,-667.4724"/>
<text text-anchor="middle" x="1369.9043" y="-724.2" font-family="Times,serif" font-size="14.00" fill="#000000">(((curr_station-orders[curr_order].dest)&lt;0))</text>
</g>
<!-- S48 -->
<g id="node22" class="node">
<title>S48</title>
<ellipse fill="none" stroke="#000000" cx="1528" cy="-728.4" rx="27" ry="18"/>
<text text-anchor="middle" x="1528" y="-724.2" font-family="Times,serif" font-size="14.00" fill="#000000">S48</text>
</g>
<!-- S65&#45;&gt;S48 -->
<g id="edge27" class="edge">
<title>S65-&gt;S48</title>
<path fill="none" stroke="#000000" d="M1303.581,-809.5859C1342.7505,-797.2849 1421.5842,-771.8391 1487,-746.4 1490.043,-745.2166 1493.1911,-743.937 1496.3279,-742.6247"/>
<polygon fill="#000000" stroke="#000000" points="1497.7775,-745.8114 1505.588,-738.6527 1495.018,-739.3782 1497.7775,-745.8114"/>
<text text-anchor="middle" x="1446.8822" y="-768.6" font-family="Times,serif" font-size="14.00" fill="#000000">else</text>
</g>
<!-- S63 -->
<g id="node23" class="node">
<title>S63</title>
<ellipse fill="none" stroke="#000000" cx="1343" cy="-462" rx="27" ry="18"/>
<text text-anchor="middle" x="1343" y="-457.8" font-family="Times,serif" font-size="14.00" fill="#000000">S63</text>
</g>
<!-- S58&#45;&gt;S63 -->
<g id="edge28" class="edge">
<title>S58-&gt;S63</title>
<path fill="none" stroke="#000000" d="M1262.5824,-623.2794C1248.9819,-601.6486 1229.9075,-562.7312 1245.1914,-532.8 1258.765,-506.218 1287.4959,-487.3037 1310.3247,-475.7506"/>
<polygon fill="#000000" stroke="#000000" points="1311.8791,-478.8868 1319.3694,-471.3938 1308.8412,-472.5804 1311.8791,-478.8868"/>
<text text-anchor="middle" x="1366.9043" y="-546.6" font-family="Times,serif" font-size="14.00" fill="#000000">(((orders[curr_order].dest-curr_station)&lt;0))</text>
</g>
<!-- S55 -->
<g id="node24" class="node">
<title>S55</title>
<ellipse fill="none" stroke="#000000" cx="1525" cy="-550.8" rx="27" ry="18"/>
<text text-anchor="middle" x="1525" y="-546.6" font-family="Times,serif" font-size="14.00" fill="#000000">S55</text>
</g>
<!-- S58&#45;&gt;S55 -->
<g id="edge29" class="edge">
<title>S58-&gt;S55</title>
<path fill="none" stroke="#000000" d="M1298.824,-632.0151C1338.3791,-619.7543 1417.983,-594.3625 1484,-568.8 1487.0447,-567.6211 1490.194,-566.3444 1493.3315,-565.034"/>
<polygon fill="#000000" stroke="#000000" points="1494.7801,-568.2211 1502.5927,-561.0647 1492.0225,-561.7871 1494.7801,-568.2211"/>
<text text-anchor="middle" x="1442.8822" y="-591" font-family="Times,serif" font-size="14.00" fill="#000000">else</text>
</g>
<!-- S48&#45;&gt;S58 -->
<g id="edge35" class="edge">
<title>S48-&gt;S58</title>
<path fill="none" stroke="#000000" d="M1506.3161,-717.4158C1500.2043,-714.7268 1493.4582,-712.1283 1487,-710.4 1416.1496,-691.4391 1388.4781,-725.3674 1322.9614,-692.4 1310.2727,-686.0151 1299.2022,-674.8965 1290.8132,-664.504"/>
<polygon fill="#000000" stroke="#000000" points="1293.5162,-662.276 1284.6806,-656.4294 1287.9417,-666.5099 1293.5162,-662.276"/>
<text text-anchor="middle" x="1450.5193" y="-679.8" font-family="Times,serif" font-size="14.00" fill="#000000">i = ((curr_station-orders[curr_order].dest)%6)</text>
</g>
<!-- S60 -->
<g id="node25" class="node">
<title>S60</title>
<ellipse fill="none" stroke="#000000" cx="1464" cy="-373.2" rx="27" ry="18"/>
<text text-anchor="middle" x="1464" y="-369" font-family="Times,serif" font-size="14.00" fill="#000000">S60</text>
</g>
<!-- S63&#45;&gt;S60 -->
<g id="edge30" class="edge">
<title>S63-&gt;S60</title>
<path fill="none" stroke="#000000" d="M1361.3773,-448.5132C1381.5435,-433.7135 1414.1055,-409.8168 1437.1357,-392.9153"/>
<polygon fill="#000000" stroke="#000000" points="1439.4586,-395.552 1445.4498,-386.8137 1435.317,-389.9086 1439.4586,-395.552"/>
<text text-anchor="middle" x="1431.1591" y="-413.4" font-family="Times,serif" font-size="14.00" fill="#000000">((i&lt;j))</text>
</g>
<!-- S62 -->
<g id="node26" class="node">
<title>S62</title>
<ellipse fill="none" stroke="#000000" cx="1636" cy="-373.2" rx="27" ry="18"/>
<text text-anchor="middle" x="1636" y="-369" font-family="Times,serif" font-size="14.00" fill="#000000">S62</text>
</g>
<!-- S63&#45;&gt;S62 -->
<g id="edge31" class="edge">
<title>S63-&gt;S62</title>
<path fill="none" stroke="#000000" d="M1367.981,-454.429C1420.3097,-438.5696 1541.5291,-401.8315 1601.343,-383.7035"/>
<polygon fill="#000000" stroke="#000000" points="1602.5273,-387.0019 1611.0822,-380.7519 1600.4969,-380.3028 1602.5273,-387.0019"/>
<text text-anchor="middle" x="1532.1591" y="-413.4" font-family="Times,serif" font-size="14.00" fill="#000000">((j&lt;i))</text>
</g>
<!-- S55&#45;&gt;S63 -->
<g id="edge34" class="edge">
<title>S55-&gt;S63</title>
<path fill="none" stroke="#000000" d="M1503.3138,-539.8244C1497.202,-537.1355 1490.4565,-534.5349 1484,-532.8 1449.2243,-523.4557 1346.9679,-541.6393 1322.9614,-514.8 1315.855,-506.855 1318.3986,-496.1355 1323.6775,-486.4309"/>
<polygon fill="#000000" stroke="#000000" points="1326.6819,-488.2287 1329.0961,-477.9126 1320.7756,-484.4716 1326.6819,-488.2287"/>
<text text-anchor="middle" x="1450.5193" y="-502.2" font-family="Times,serif" font-size="14.00" fill="#000000">j = ((orders[curr_order].dest-curr_station)%6)</text>
</g>
<!-- S60&#45;&gt;S130 -->
<g id="edge32" class="edge">
<title>S60-&gt;S130</title>
<path fill="none" stroke="#000000" stroke-width="2" d="M1489.995,-378.6211C1527.9323,-388.2278 1594,-412.1186 1594,-462 1594,-728.4 1594,-728.4 1594,-728.4 1594,-751.8685 1588.0859,-758.6707 1594.6586,-781.2 1623.31,-879.4084 1687.9616,-878.4148 1716,-976.8 1734.9688,-1043.3604 1677.2824,-1114.2668 1642.4555,-1149.6096"/>
<polygon fill="#000000" stroke="#000000" stroke-width="2" points="1639.6333,-1147.4784 1634.9889,-1157.001 1644.558,-1152.4532 1639.6333,-1147.4784"/>
<text text-anchor="middle" x="1669.6707" y="-768.6" font-family="Times,serif" font-size="14.00" fill="#000000">shuttle_travel[id].dir = -(1)</text>
</g>
<!-- S62&#45;&gt;S130 -->
<g id="edge33" class="edge">
<title>S62-&gt;S130</title>
<path fill="none" stroke="#000000" stroke-width="2" d="M1662.079,-378.4142C1700.5478,-387.7972 1768,-411.456 1768,-462 1768,-1083.6 1768,-1083.6 1768,-1083.6 1768,-1109.3772 1763.5277,-1119.5735 1744,-1136.4 1730.9755,-1147.6229 1689.4102,-1158.1424 1657.545,-1164.8771"/>
<polygon fill="#000000" stroke="#000000" stroke-width="2" points="1656.6774,-1161.4822 1647.5885,-1166.9268 1658.0889,-1168.3385 1656.6774,-1161.4822"/>
<text text-anchor="middle" x="1836.6798" y="-768.6" font-family="Times,serif" font-size="14.00" fill="#000000">shuttle_travel[id].dir = 1</text>
</g>
<!-- S72 -->
<g id="node28" class="node">
<title>S72</title>
<ellipse fill="none" stroke="#000000" cx="1453" cy="-817.2" rx="27" ry="18"/>
<text text-anchor="middle" x="1453" y="-813" font-family="Times,serif" font-size="14.00" fill="#000000">S72</text>
</g>
<!-- S71&#45;&gt;S72 -->
<g id="edge37" class="edge">
<title>S71-&gt;S72</title>
<path fill="none" stroke="#000000" stroke-width="2" d="M1100.2702,-889.138C1108.6894,-876.9368 1121.7807,-861.2349 1137.6404,-853.2 1172.9796,-835.2963 1275.6479,-839.7624 1315,-835.2 1349.37,-831.2152 1388.4705,-826.056 1416.2539,-822.2832"/>
<polygon fill="#000000" stroke="#000000" stroke-width="2" points="1416.8796,-825.7303 1426.3146,-820.9104 1415.9332,-818.7946 1416.8796,-825.7303"/>
<text text-anchor="middle" x="1205.6798" y="-857.4" font-family="Times,serif" font-size="14.00" fill="#000000">shuttle_travel[id].dir = 0</text>
</g>
<!-- S72&#45;&gt;S130 -->
<g id="edge38" class="edge">
<title>S72-&gt;S130</title>
<path fill="none" stroke="#000000" d="M1470.9143,-830.8695C1478.1693,-837.082 1486.1873,-844.8964 1492,-853.2 1536.0926,-916.1873 1503.9048,-958.9116 1558.7464,-1012.8 1574.1856,-1027.9708 1590.9802,-1013.5082 1604,-1030.8 1628.5902,-1063.4584 1627.2386,-1113.0657 1623.209,-1144.0617"/>
<polygon fill="#000000" stroke="#000000" points="1619.7117,-1143.7862 1621.7101,-1154.1909 1626.6363,-1144.811 1619.7117,-1143.7862"/>
<text text-anchor="middle" x="1636.6268" y="-990.6" font-family="Times,serif" font-size="14.00" fill="#000000">curr_order = (curr_order+1)</text>
</g>
<!-- S89 -->
<g id="node31" class="node">
<title>S89</title>
<ellipse fill="none" stroke="#000000" cx="862" cy="-728.4" rx="27" ry="18"/>
<text text-anchor="middle" x="862" y="-724.2" font-family="Times,serif" font-size="14.00" fill="#000000">S89</text>
</g>
<!-- S96&#45;&gt;S89 -->
<g id="edge41" class="edge">
<title>S96-&gt;S89</title>
<path fill="none" stroke="#000000" d="M859.9901,-889.8245C881.6953,-860.6403 925.7205,-801.9305 930.6402,-799.2 1000.8767,-760.2169 1160.5285,-825.1751 1108,-764.4 1094.5649,-748.8557 965.0356,-736.5196 899.5345,-731.2181"/>
<polygon fill="#000000" stroke="#000000" points="899.4673,-727.7018 889.2215,-730.3987 898.9128,-734.6798 899.4673,-727.7018"/>
<text text-anchor="middle" x="1052.6799" y="-813" font-family="Times,serif" font-size="14.00" fill="#000000">(((curr_station-orders[curr_order].start)&lt;0))</text>
</g>
<!-- S79 -->
<g id="node32" class="node">
<title>S79</title>
<ellipse fill="none" stroke="#000000" cx="848" cy="-817.2" rx="27" ry="18"/>
<text text-anchor="middle" x="848" y="-813" font-family="Times,serif" font-size="14.00" fill="#000000">S79</text>
</g>
<!-- S96&#45;&gt;S79 -->
<g id="edge42" class="edge">
<title>S96-&gt;S79</title>
<path fill="none" stroke="#000000" d="M848,-887.6006C848,-875.4949 848,-859.4076 848,-845.6674"/>
<polygon fill="#000000" stroke="#000000" points="851.5001,-845.272 848,-835.272 844.5001,-845.2721 851.5001,-845.272"/>
<text text-anchor="middle" x="858.8822" y="-857.4" font-family="Times,serif" font-size="14.00" fill="#000000">else</text>
</g>
<!-- S111 -->
<g id="node37" class="node">
<title>S111</title>
<ellipse fill="none" stroke="#000000" cx="1087" cy="-284.4" rx="30.7808" ry="18"/>
<text text-anchor="middle" x="1087" y="-280.2" font-family="Times,serif" font-size="14.00" fill="#000000">S111</text>
</g>
<!-- S127&#45;&gt;S111 -->
<g id="edge48" class="edge">
<title>S127-&gt;S111</title>
<path fill="none" stroke="#000000" stroke-dasharray="5,2" d="M1049.2857,-355.656C1056.0887,-342.8025 1065.4375,-325.1393 1073.1251,-310.6148"/>
<polygon fill="#000000" stroke="#000000" points="1076.3089,-312.0811 1077.8935,-301.6054 1070.1221,-308.8065 1076.3089,-312.0811"/>
<text text-anchor="middle" x="1107.0974" y="-324.6" font-family="Times,serif" font-size="14.00" fill="#000000">can_travel = 1</text>
</g>
<!-- S94 -->
<g id="node33" class="node">
<title>S94</title>
<ellipse fill="none" stroke="#000000" cx="873" cy="-550.8" rx="27" ry="18"/>
<text text-anchor="middle" x="873" y="-546.6" font-family="Times,serif" font-size="14.00" fill="#000000">S94</text>
</g>
<!-- S89&#45;&gt;S94 -->
<g id="edge43" class="edge">
<title>S89-&gt;S94</title>
<path fill="none" stroke="#000000" d="M863.1153,-710.3934C865.0342,-679.412 868.9737,-615.806 871.2574,-578.9346"/>
<polygon fill="#000000" stroke="#000000" points="874.7568,-579.0515 871.8818,-568.8543 867.7702,-578.6187 874.7568,-579.0515"/>
<text text-anchor="middle" x="990.6799" y="-635.4" font-family="Times,serif" font-size="14.00" fill="#000000">(((orders[curr_order].start-curr_station)&lt;0))</text>
</g>
<!-- S86 -->
<g id="node34" class="node">
<title>S86</title>
<ellipse fill="none" stroke="#000000" cx="715" cy="-639.6" rx="27" ry="18"/>
<text text-anchor="middle" x="715" y="-635.4" font-family="Times,serif" font-size="14.00" fill="#000000">S86</text>
</g>
<!-- S89&#45;&gt;S86 -->
<g id="edge44" class="edge">
<title>S89-&gt;S86</title>
<path fill="none" stroke="#000000" d="M841.8685,-716.2389C816.6092,-700.9802 773.1047,-674.7 744.1927,-657.2348"/>
<polygon fill="#000000" stroke="#000000" points="745.7293,-654.074 735.3601,-651.8992 742.1098,-660.0656 745.7293,-654.074"/>
<text text-anchor="middle" x="812.8822" y="-679.8" font-family="Times,serif" font-size="14.00" fill="#000000">else</text>
</g>
<!-- S79&#45;&gt;S89 -->
<g id="edge62" class="edge">
<title>S79-&gt;S89</title>
<path fill="none" stroke="#000000" d="M847.1076,-798.9729C846.9497,-788.7325 847.3239,-775.7642 849.4102,-764.4 849.937,-761.5305 850.6554,-758.5823 851.4839,-755.6675"/>
<polygon fill="#000000" stroke="#000000" points="854.8476,-756.6411 854.6061,-746.049 848.1896,-754.4798 854.8476,-756.6411"/>
<text text-anchor="middle" x="978.2949" y="-768.6" font-family="Times,serif" font-size="14.00" fill="#000000">i = ((curr_station-orders[curr_order].start)%6)</text>
</g>
<!-- S91 -->
<g id="node35" class="node">
<title>S91</title>
<ellipse fill="none" stroke="#000000" cx="1000" cy="-462" rx="27" ry="18"/>
<text text-anchor="middle" x="1000" y="-457.8" font-family="Times,serif" font-size="14.00" fill="#000000">S91</text>
</g>
<!-- S94&#45;&gt;S91 -->
<g id="edge45" class="edge">
<title>S94-&gt;S91</title>
<path fill="none" stroke="#000000" d="M891.7393,-537.6973C913.1245,-522.7445 948.2903,-498.1561 972.7162,-481.0772"/>
<polygon fill="#000000" stroke="#000000" points="974.9941,-483.7552 981.1838,-475.1565 970.9828,-478.0185 974.9941,-483.7552"/>
<text text-anchor="middle" x="964.1591" y="-502.2" font-family="Times,serif" font-size="14.00" fill="#000000">((i&lt;j))</text>
</g>
<!-- S93 -->
<g id="node36" class="node">
<title>S93</title>
<ellipse fill="none" stroke="#000000" cx="866" cy="-462" rx="27" ry="18"/>
<text text-anchor="middle" x="866" y="-457.8" font-family="Times,serif" font-size="14.00" fill="#000000">S93</text>
</g>
<!-- S94&#45;&gt;S93 -->
<g id="edge46" class="edge">
<title>S94-&gt;S93</title>
<path fill="none" stroke="#000000" d="M871.5496,-532.4006C870.5859,-520.175 869.302,-503.8887 868.2119,-490.0599"/>
<polygon fill="#000000" stroke="#000000" points="871.6997,-489.766 867.4246,-480.072 864.7214,-490.3162 871.6997,-489.766"/>
<text text-anchor="middle" x="887.1591" y="-502.2" font-family="Times,serif" font-size="14.00" fill="#000000">((j&lt;i))</text>
</g>
<!-- S86&#45;&gt;S94 -->
<g id="edge61" class="edge">
<title>S86-&gt;S94</title>
<path fill="none" stroke="#000000" d="M688.3145,-636.5988C647.5786,-630.9999 577.2241,-616.7153 603.4102,-586.8 618.4602,-569.6067 764.8754,-557.8322 835.3994,-553.1115"/>
<polygon fill="#000000" stroke="#000000" points="835.8828,-556.5874 845.6323,-552.4405 835.4247,-549.6024 835.8828,-556.5874"/>
<text text-anchor="middle" x="733.2949" y="-591" font-family="Times,serif" font-size="14.00" fill="#000000">j = ((orders[curr_order].start-curr_station)%6)</text>
</g>
<!-- S91&#45;&gt;S127 -->
<g id="edge47" class="edge">
<title>S91-&gt;S127</title>
<path fill="none" stroke="#000000" stroke-width="2" d="M1007.9027,-444.456C1013.6004,-431.8071 1021.3963,-414.5002 1027.8781,-400.1105"/>
<polygon fill="#000000" stroke="#000000" stroke-width="2" points="1031.1978,-401.2628 1032.1137,-390.7076 1024.8154,-398.3878 1031.1978,-401.2628"/>
<text text-anchor="middle" x="1098.6707" y="-413.4" font-family="Times,serif" font-size="14.00" fill="#000000">shuttle_travel[id].dir = -(1)</text>
</g>
<!-- S93&#45;&gt;S127 -->
<g id="edge60" class="edge">
<title>S93-&gt;S127</title>
<path fill="none" stroke="#000000" stroke-width="2" d="M864.1805,-443.8591C864.0771,-432.4809 866.0078,-418.295 874.6404,-409.2 891.4464,-391.4938 956.1117,-381.6055 999.4207,-376.8463"/>
<polygon fill="#000000" stroke="#000000" stroke-width="2" points="999.8098,-380.3248 1009.3894,-375.7992 999.0784,-373.3631 999.8098,-380.3248"/>
<text text-anchor="middle" x="942.6798" y="-413.4" font-family="Times,serif" font-size="14.00" fill="#000000">shuttle_travel[id].dir = 1</text>
</g>
<!-- S106 -->
<g id="node38" class="node">
<title>S106</title>
<ellipse fill="none" stroke="#000000" cx="1150" cy="-195.6" rx="30.7808" ry="18"/>
<text text-anchor="middle" x="1150" y="-191.4" font-family="Times,serif" font-size="14.00" fill="#000000">S106</text>
</g>
<!-- S111&#45;&gt;S106 -->
<g id="edge49" class="edge">
<title>S111-&gt;S106</title>
<path fill="none" stroke="#000000" stroke-dasharray="5,2" d="M1082.9612,-266.0915C1081.5857,-255.3376 1081.671,-241.8826 1087.696,-231.6 1093.5468,-221.6147 1103.3221,-214.1419 1113.4153,-208.6708"/>
<polygon fill="#000000" stroke="#000000" points="1115.1921,-211.6994 1122.6705,-204.1945 1112.1442,-205.3978 1115.1921,-211.6994"/>
<text text-anchor="middle" x="1120.152" y="-235.8" font-family="Times,serif" font-size="14.00" fill="#000000">((i&lt;=(3-1)))</text>
</g>
<!-- S125 -->
<g id="node39" class="node">
<title>S125</title>
<ellipse fill="none" stroke="#000000" cx="1792" cy="-195.6" rx="30.7808" ry="18"/>
<text text-anchor="middle" x="1792" y="-191.4" font-family="Times,serif" font-size="14.00" fill="#000000">S125</text>
</g>
<!-- S111&#45;&gt;S125 -->
<g id="edge50" class="edge">
<title>S111-&gt;S125</title>
<path fill="none" stroke="#000000" stroke-dasharray="5,2" d="M1118.0761,-283.7896C1238.549,-281.2691 1670.9112,-270.7367 1728,-248.4 1744.1305,-242.0887 1759.2283,-230.0567 1770.7045,-219.0707"/>
<polygon fill="#000000" stroke="#000000" points="1773.4564,-221.2678 1778.0391,-211.7154 1768.4996,-216.3251 1773.4564,-221.2678"/>
<text text-anchor="middle" x="1765.8822" y="-235.8" font-family="Times,serif" font-size="14.00" fill="#000000">else</text>
</g>
<!-- S106&#45;&gt;S111 -->
<g id="edge51" class="edge">
<title>S106-&gt;S111</title>
<path fill="none" stroke="#000000" stroke-dasharray="5,2" d="M1156.2893,-213.4322C1158.9691,-224.2725 1160.2271,-237.985 1154,-248.4 1147.4355,-259.3793 1136.2448,-267.2043 1124.8693,-272.69"/>
<polygon fill="#000000" stroke="#000000" points="1123.1783,-269.6069 1115.3679,-276.7657 1125.9378,-276.04 1123.1783,-269.6069"/>
<text text-anchor="middle" x="1441.108" y="-235.8" font-family="Times,serif" font-size="14.00" fill="#000000">((((shuttle_travel[i].start==curr_station)&amp;&amp;(shuttle_travel[i].dir==shuttle_travel[id].dir))&amp;&amp;(i!=id)))</text>
</g>
<!-- S108 -->
<g id="node40" class="node">
<title>S108</title>
<ellipse fill="none" stroke="#000000" cx="1086" cy="-106.8" rx="30.7808" ry="18"/>
<text text-anchor="middle" x="1086" y="-102.6" font-family="Times,serif" font-size="14.00" fill="#000000">S108</text>
</g>
<!-- S106&#45;&gt;S108 -->
<g id="edge52" class="edge">
<title>S106-&gt;S108</title>
<path fill="none" stroke="#000000" stroke-dasharray="5,2" d="M1137.9621,-178.8974C1128.3971,-165.626 1114.8704,-146.8577 1104.0159,-131.7971"/>
<polygon fill="#000000" stroke="#000000" points="1106.6703,-129.4939 1097.9839,-123.4277 1100.9915,-133.5867 1106.6703,-129.4939"/>
<text text-anchor="middle" x="1133.8822" y="-147" font-family="Times,serif" font-size="14.00" fill="#000000">else</text>
</g>
<!-- S122 -->
<g id="node41" class="node">
<title>S122</title>
<ellipse fill="none" stroke="#000000" cx="1920" cy="-106.8" rx="30.7808" ry="18"/>
<text text-anchor="middle" x="1920" y="-102.6" font-family="Times,serif" font-size="14.00" fill="#000000">S122</text>
</g>
<!-- S125&#45;&gt;S122 -->
<g id="edge54" class="edge">
<title>S125-&gt;S122</title>
<path fill="none" stroke="#000000" stroke-dasharray="5,2" d="M1787.5082,-177.6689C1785.8208,-166.5189 1785.8454,-152.5074 1793.3786,-142.8 1804.0764,-129.0145 1847.0648,-118.8659 1880.0149,-112.9204"/>
<polygon fill="#000000" stroke="#000000" points="1880.6169,-116.3684 1889.8716,-111.2108 1879.4206,-109.4713 1880.6169,-116.3684"/>
<text text-anchor="middle" x="1826.8107" y="-147" font-family="Times,serif" font-size="14.00" fill="#000000">(can_travel)</text>
</g>
<!-- S126 -->
<g id="node42" class="node">
<title>S126</title>
<ellipse fill="none" stroke="#000000" cx="2123" cy="-106.8" rx="30.7808" ry="18"/>
<text text-anchor="middle" x="2123" y="-102.6" font-family="Times,serif" font-size="14.00" fill="#000000">S126</text>
</g>
<!-- S125&#45;&gt;S126 -->
<g id="edge55" class="edge">
<title>S125-&gt;S126</title>
<path fill="none" stroke="#000000" stroke-dasharray="5,2" d="M1820.2209,-188.029C1879.7026,-172.0713 2017.9775,-134.9752 2085.0967,-116.9686"/>
<polygon fill="#000000" stroke="#000000" points="2086.099,-120.3236 2094.8506,-114.3519 2084.2852,-113.5626 2086.099,-120.3236"/>
<text text-anchor="middle" x="1997.8822" y="-147" font-family="Times,serif" font-size="14.00" fill="#000000">else</text>
</g>
<!-- S108&#45;&gt;S111 -->
<g id="edge53" class="edge">
<title>S108-&gt;S111</title>
<path fill="none" stroke="#000000" stroke-dasharray="5,2" d="M1078.5794,-124.4627C1073.078,-138.5613 1066.0454,-158.9695 1063.1084,-177.6 1060.6168,-193.4048 1060.5163,-197.8114 1063.1084,-213.6 1065.5296,-228.3475 1070.61,-244.1596 1075.4659,-257.0917"/>
<polygon fill="#000000" stroke="#000000" points="1072.3508,-258.7356 1079.257,-266.7702 1078.8686,-256.1824 1072.3508,-258.7356"/>
<text text-anchor="middle" x="1086.4458" y="-191.4" font-family="Times,serif" font-size="14.00" fill="#000000">i = (i+1)</text>
</g>
<!-- S122&#45;&gt;S130 -->
<g id="edge56" class="edge">
<title>S122-&gt;S130</title>
<path fill="none" stroke="#000000" stroke-width="2" d="M1920,-124.8279C1920,-142.7689 1920,-171.0875 1920,-195.6 1920,-1083.6 1920,-1083.6 1920,-1083.6 1920,-1137.4499 1741.0327,-1161.0149 1658.6396,-1169.0105"/>
<polygon fill="#000000" stroke="#000000" stroke-width="2" points="1658.248,-1165.5317 1648.6193,-1169.9521 1658.903,-1172.501 1658.248,-1165.5317"/>
<text text-anchor="middle" x="2065.1163" y="-635.4" font-family="Times,serif" font-size="14.00" fill="#000000">(((shuttle_travel[id].start+shuttle_travel[id].dir)&lt;0))</text>
</g>
<!-- S119 -->
<g id="node43" class="node">
<title>S119</title>
<ellipse fill="none" stroke="#000000" cx="2116" cy="-18" rx="30.7808" ry="18"/>
<text text-anchor="middle" x="2116" y="-13.8" font-family="Times,serif" font-size="14.00" fill="#000000">S119</text>
</g>
<!-- S122&#45;&gt;S119 -->
<g id="edge57" class="edge">
<title>S122-&gt;S119</title>
<path fill="none" stroke="#000000" stroke-dasharray="5,2" d="M1944.4272,-95.733C1979.1463,-80.0031 2042.8986,-51.1194 2082.1538,-33.3344"/>
<polygon fill="#000000" stroke="#000000" points="2083.9092,-36.3816 2091.5735,-29.0667 2081.0204,-30.0055 2083.9092,-36.3816"/>
<text text-anchor="middle" x="2045.8822" y="-58.2" font-family="Times,serif" font-size="14.00" fill="#000000">else</text>
</g>
<!-- S126&#45;&gt;S130 -->
<g id="edge59" class="edge">
<title>S126-&gt;S130</title>
<path fill="none" stroke="#000000" stroke-width="2" d="M2151.5278,-113.8153C2187.8633,-124.6567 2246,-149.2457 2246,-195.6 2246,-1083.6 2246,-1083.6 2246,-1083.6 2246,-1143.0265 1799.4312,-1165.3738 1659.4458,-1170.9191"/>
<polygon fill="#000000" stroke="#000000" stroke-width="2" points="1658.9994,-1167.4337 1649.1426,-1171.3186 1659.2708,-1174.4284 1658.9994,-1167.4337"/>
<text text-anchor="middle" x="2264.8559" y="-635.4" font-family="Times,serif" font-size="14.00" fill="#000000">.(goto)</text>
</g>
<!-- S119&#45;&gt;S130 -->
<g id="edge58" class="edge">
<title>S119-&gt;S130</title>
<path fill="none" stroke="#000000" stroke-width="2" d="M2144.9205,-24.7264C2199.4412,-38.2519 2312,-70.5635 2312,-106.8 2312,-1083.6 2312,-1083.6 2312,-1083.6 2312,-1149.8056 1808.6587,-1167.6502 1659.2984,-1171.4879"/>
<polygon fill="#000000" stroke="#000000" stroke-width="2" points="1659.0776,-1167.9922 1649.168,-1171.7405 1659.2521,-1174.9901 1659.0776,-1167.9922"/>
<text text-anchor="middle" x="2495.2194" y="-591" font-family="Times,serif" font-size="14.00" fill="#000000">curr_station = (shuttle_travel[id].start+(shuttle_travel[id].dir%6))</text>
</g>
</g>
</svg>